<svg viewBox="0 0 256 256" xmlns="http://www.w3.org/2000/svg"><path fill="none" d="M0 0h256v256H0z"></path><path d="M92.5 124.8a83.6 83.6 0 0 0 39 38.9 8 8 0 0 0 7.9-.6l25-16.7a7.9 7.9 0 0 1 7.6-.7l46.8 20.1a7.9 7.9 0 0 1 4.8 8.3A48 48 0 0 1 176 216 136 136 0 0 1 40 80a48 48 0 0 1 41.9-47.6 7.9 7.9 0 0 1 8.3 4.8l20.1 46.9a8 8 0 0 1-.6 7.5L93 117a8 8 0 0 0-.5 7.8Z" opacity=".2" fill="#454242" class="fill-000000"></path><path d="M92.5 124.8a83.6 83.6 0 0 0 39 38.9 8 8 0 0 0 7.9-.6l25-16.7a7.9 7.9 0 0 1 7.6-.7l46.8 20.1a7.9 7.9 0 0 1 4.8 8.3A48 48 0 0 1 176 216 136 136 0 0 1 40 80a48 48 0 0 1 41.9-47.6 7.9 7.9 0 0 1 8.3 4.8l20.1 46.9a8 8 0 0 1-.6 7.5L93 117a8 8 0 0 0-.5 7.8ZM159.4 40A80.1 80.1 0 0 1 216 96.6M151.1 70.9a47.9 47.9 0 0 1 34 34" fill="none" stroke="#454242" stroke-linecap="round" stroke-linejoin="round" stroke-width="16" class="stroke-000000"></path></svg>