<svg viewBox="0 0 846.66 846.66" xml:space="preserve" xmlns="http://www.w3.org/2000/svg" shape-rendering="geometricPrecision" text-rendering="geometricPrecision" image-rendering="optimizeQuality" fill-rule="evenodd" clip-rule="evenodd"><path d="M117.25 10.39h612.16c11.4 0 20.64 9.24 20.64 20.64v784.6c0 11.4-9.24 20.64-20.64 20.64H117.25c-11.4 0-20.64-9.24-20.64-20.64V31.03c0-11.4 9.24-20.64 20.64-20.64zm379.9 637.26c-27.15 0-27.15-41.29 0-41.29h117.48c27.15 0 27.15 41.29 0 41.29H497.15zm0 88.37c-27.15 0-27.15-41.29 0-41.29h117.48c27.15 0 27.15 41.29 0 41.29H497.15zM232.03 584.8h144.42c11.4 0 20.65 9.25 20.65 20.65v131.49c0 11.4-9.25 20.64-20.65 20.64H232.03c-11.4 0-20.64-9.24-20.64-20.64V605.45c0-11.4 9.24-20.65 20.64-20.65zm123.77 41.29H252.68v90.2H355.8v-90.2zm-156.66-92.68c-27.16 0-27.16-41.29 0-41.29h446.19c27.15 0 27.15 41.29 0 41.29H199.14zm0-86.22c-27.16 0-27.16-41.29 0-41.29h446.19c27.15 0 27.15 41.29 0 41.29H199.14zm315.14-278.58c-27.16 0-27.16-41.29 0-41.29h109.93c27.15 0 27.15 41.29 0 41.29H514.28zm0 177.82c-27.16 0-27.16-41.29 0-41.29h109.93c27.15 0 27.15 41.29 0 41.29H514.28zm0-88.91c-27.16 0-27.16-41.29 0-41.29h109.93c27.15 0 27.15 41.29 0 41.29H514.28zm-183.2-145.83c54.7 0 99.05 44.35 99.05 99.05 0 13.86-2.85 27.06-7.99 39.04 24.37 24.23 38.21 57.22 38.21 91.64 0 27.15-41.29 27.15-41.29 0 0-21.3-7.37-41.39-21.25-57.48-17.61 16.06-41.03 25.85-66.73 25.85-25.7 0-49.12-9.79-66.72-25.85-13.89 16.09-21.26 36.19-21.26 57.48 0 27.15-41.29 27.15-41.29 0 0-34.42 13.84-67.41 38.21-91.64-5.14-11.98-7.99-25.18-7.99-39.04 0-54.7 44.35-99.05 99.05-99.05zm0 41.29c-31.9 0-57.76 25.86-57.76 57.76s25.86 57.76 57.76 57.76 57.76-25.86 57.76-57.76-25.86-57.76-57.76-57.76zm377.68-101.3H137.9v743.3h570.86V51.68z" fill="#524843" fill-rule="nonzero" class="fill-000000"></path></svg>